<mxfile host="app.diagrams.net" agent="Mozilla/5.0 (Windows NT 10.0; Win64; x64) AppleWebKit/537.36 (KHTML, like Gecko) Chrome/137.0.0.0 Safari/537.36" version="27.1.1">
  <diagram name="Page-1" id="lBwvdp4r8g6l-p9t-UII">
    <mxGraphModel dx="872" dy="511" grid="1" gridSize="10" guides="1" tooltips="1" connect="1" arrows="1" fold="1" page="1" pageScale="1" pageWidth="850" pageHeight="1100" math="0" shadow="0">
      <root>
        <mxCell id="0" />
        <mxCell id="1" parent="0" />
        <mxCell id="z0q83_2lEymNG6O13yxo-2" value="&lt;font style=&quot;font-size: 24px;&quot;&gt;Check Even or Odd&lt;/font&gt;" style="text;html=1;align=center;verticalAlign=middle;whiteSpace=wrap;rounded=0;" vertex="1" parent="1">
          <mxGeometry x="250" y="30" width="290" height="60" as="geometry" />
        </mxCell>
        <mxCell id="z0q83_2lEymNG6O13yxo-6" style="edgeStyle=orthogonalEdgeStyle;rounded=0;orthogonalLoop=1;jettySize=auto;html=1;entryX=0.5;entryY=0;entryDx=0;entryDy=0;" edge="1" parent="1" source="z0q83_2lEymNG6O13yxo-3" target="z0q83_2lEymNG6O13yxo-4">
          <mxGeometry relative="1" as="geometry" />
        </mxCell>
        <mxCell id="z0q83_2lEymNG6O13yxo-3" value="&lt;font style=&quot;font-size: 18px;&quot;&gt;Start&lt;/font&gt;" style="ellipse;whiteSpace=wrap;html=1;" vertex="1" parent="1">
          <mxGeometry x="340" y="100" width="140" height="70" as="geometry" />
        </mxCell>
        <mxCell id="z0q83_2lEymNG6O13yxo-13" style="edgeStyle=orthogonalEdgeStyle;rounded=0;orthogonalLoop=1;jettySize=auto;html=1;entryX=0.5;entryY=0;entryDx=0;entryDy=0;" edge="1" parent="1" source="z0q83_2lEymNG6O13yxo-4" target="z0q83_2lEymNG6O13yxo-8">
          <mxGeometry relative="1" as="geometry" />
        </mxCell>
        <mxCell id="z0q83_2lEymNG6O13yxo-4" value="&lt;font style=&quot;font-size: 14px;&quot;&gt;Number 1&lt;/font&gt;" style="shape=parallelogram;perimeter=parallelogramPerimeter;whiteSpace=wrap;html=1;fixedSize=1;" vertex="1" parent="1">
          <mxGeometry x="350" y="210" width="120" height="60" as="geometry" />
        </mxCell>
        <mxCell id="z0q83_2lEymNG6O13yxo-15" value="" style="edgeStyle=orthogonalEdgeStyle;rounded=0;orthogonalLoop=1;jettySize=auto;html=1;" edge="1" parent="1" source="z0q83_2lEymNG6O13yxo-8" target="z0q83_2lEymNG6O13yxo-14">
          <mxGeometry relative="1" as="geometry" />
        </mxCell>
        <mxCell id="z0q83_2lEymNG6O13yxo-16" value="" style="edgeStyle=orthogonalEdgeStyle;rounded=0;orthogonalLoop=1;jettySize=auto;html=1;" edge="1" parent="1" source="z0q83_2lEymNG6O13yxo-8" target="z0q83_2lEymNG6O13yxo-12">
          <mxGeometry relative="1" as="geometry" />
        </mxCell>
        <mxCell id="z0q83_2lEymNG6O13yxo-8" value="Number1 % 2 == 0" style="rhombus;whiteSpace=wrap;html=1;" vertex="1" parent="1">
          <mxGeometry x="336.25" y="310" width="117.5" height="110" as="geometry" />
        </mxCell>
        <mxCell id="z0q83_2lEymNG6O13yxo-10" value="True" style="text;html=1;align=center;verticalAlign=middle;whiteSpace=wrap;rounded=0;" vertex="1" parent="1">
          <mxGeometry x="470" y="330" width="70" height="40" as="geometry" />
        </mxCell>
        <mxCell id="z0q83_2lEymNG6O13yxo-11" value="False" style="text;html=1;align=center;verticalAlign=middle;whiteSpace=wrap;rounded=0;" vertex="1" parent="1">
          <mxGeometry x="310" y="460" width="60" height="30" as="geometry" />
        </mxCell>
        <mxCell id="z0q83_2lEymNG6O13yxo-12" value="The Number1&lt;div&gt;is Odd&lt;/div&gt;" style="shape=parallelogram;perimeter=parallelogramPerimeter;whiteSpace=wrap;html=1;fixedSize=1;" vertex="1" parent="1">
          <mxGeometry x="310" y="510" width="120" height="60" as="geometry" />
        </mxCell>
        <mxCell id="z0q83_2lEymNG6O13yxo-19" style="edgeStyle=orthogonalEdgeStyle;rounded=0;orthogonalLoop=1;jettySize=auto;html=1;entryX=0.5;entryY=0;entryDx=0;entryDy=0;" edge="1" parent="1" source="z0q83_2lEymNG6O13yxo-14" target="z0q83_2lEymNG6O13yxo-17">
          <mxGeometry relative="1" as="geometry" />
        </mxCell>
        <mxCell id="z0q83_2lEymNG6O13yxo-14" value="The Number1&lt;div&gt;is Even&lt;/div&gt;" style="shape=parallelogram;perimeter=parallelogramPerimeter;whiteSpace=wrap;html=1;fixedSize=1;" vertex="1" parent="1">
          <mxGeometry x="550" y="335" width="120" height="60" as="geometry" />
        </mxCell>
        <mxCell id="z0q83_2lEymNG6O13yxo-21" style="edgeStyle=orthogonalEdgeStyle;rounded=0;orthogonalLoop=1;jettySize=auto;html=1;" edge="1" parent="1" source="z0q83_2lEymNG6O13yxo-17" target="z0q83_2lEymNG6O13yxo-20">
          <mxGeometry relative="1" as="geometry" />
        </mxCell>
        <mxCell id="z0q83_2lEymNG6O13yxo-17" value="" style="ellipse;whiteSpace=wrap;html=1;aspect=fixed;" vertex="1" parent="1">
          <mxGeometry x="590" y="570" width="80" height="80" as="geometry" />
        </mxCell>
        <mxCell id="z0q83_2lEymNG6O13yxo-18" style="edgeStyle=orthogonalEdgeStyle;rounded=0;orthogonalLoop=1;jettySize=auto;html=1;entryX=0.05;entryY=0.4;entryDx=0;entryDy=0;entryPerimeter=0;" edge="1" parent="1" source="z0q83_2lEymNG6O13yxo-12" target="z0q83_2lEymNG6O13yxo-17">
          <mxGeometry relative="1" as="geometry" />
        </mxCell>
        <mxCell id="z0q83_2lEymNG6O13yxo-20" value="&lt;font style=&quot;font-size: 24px;&quot;&gt;Stop&lt;/font&gt;" style="ellipse;whiteSpace=wrap;html=1;" vertex="1" parent="1">
          <mxGeometry x="570" y="780" width="120" height="80" as="geometry" />
        </mxCell>
        <mxCell id="z0q83_2lEymNG6O13yxo-22" value="" style="endArrow=none;dashed=1;html=1;dashPattern=1 3;strokeWidth=2;rounded=0;" edge="1" parent="1">
          <mxGeometry width="50" height="50" relative="1" as="geometry">
            <mxPoint x="8" y="890" as="sourcePoint" />
            <mxPoint x="840" y="890" as="targetPoint" />
          </mxGeometry>
        </mxCell>
        <mxCell id="z0q83_2lEymNG6O13yxo-23" value="&lt;font style=&quot;font-size: 24px;&quot;&gt;Check Positive, Negative, or Zero&lt;/font&gt;" style="text;html=1;align=center;verticalAlign=middle;whiteSpace=wrap;rounded=0;" vertex="1" parent="1">
          <mxGeometry x="260" y="920" width="290" height="60" as="geometry" />
        </mxCell>
        <mxCell id="z0q83_2lEymNG6O13yxo-26" style="edgeStyle=orthogonalEdgeStyle;rounded=0;orthogonalLoop=1;jettySize=auto;html=1;entryX=0.5;entryY=0;entryDx=0;entryDy=0;" edge="1" parent="1" source="z0q83_2lEymNG6O13yxo-24" target="z0q83_2lEymNG6O13yxo-25">
          <mxGeometry relative="1" as="geometry" />
        </mxCell>
        <mxCell id="z0q83_2lEymNG6O13yxo-24" value="&lt;font style=&quot;font-size: 18px;&quot;&gt;Start&lt;/font&gt;" style="ellipse;whiteSpace=wrap;html=1;" vertex="1" parent="1">
          <mxGeometry x="336.25" y="1040" width="140" height="70" as="geometry" />
        </mxCell>
        <mxCell id="z0q83_2lEymNG6O13yxo-28" style="edgeStyle=orthogonalEdgeStyle;rounded=0;orthogonalLoop=1;jettySize=auto;html=1;entryX=0.5;entryY=0;entryDx=0;entryDy=0;" edge="1" parent="1" source="z0q83_2lEymNG6O13yxo-25" target="z0q83_2lEymNG6O13yxo-27">
          <mxGeometry relative="1" as="geometry" />
        </mxCell>
        <mxCell id="z0q83_2lEymNG6O13yxo-25" value="&lt;font style=&quot;font-size: 14px;&quot;&gt;Number 1&lt;/font&gt;" style="shape=parallelogram;perimeter=parallelogramPerimeter;whiteSpace=wrap;html=1;fixedSize=1;" vertex="1" parent="1">
          <mxGeometry x="346.25" y="1170" width="120" height="60" as="geometry" />
        </mxCell>
        <mxCell id="z0q83_2lEymNG6O13yxo-30" value="" style="edgeStyle=orthogonalEdgeStyle;rounded=0;orthogonalLoop=1;jettySize=auto;html=1;" edge="1" parent="1" source="z0q83_2lEymNG6O13yxo-27" target="z0q83_2lEymNG6O13yxo-29">
          <mxGeometry relative="1" as="geometry" />
        </mxCell>
        <mxCell id="z0q83_2lEymNG6O13yxo-39" value="" style="edgeStyle=orthogonalEdgeStyle;rounded=0;orthogonalLoop=1;jettySize=auto;html=1;" edge="1" parent="1" source="z0q83_2lEymNG6O13yxo-27" target="z0q83_2lEymNG6O13yxo-35">
          <mxGeometry relative="1" as="geometry" />
        </mxCell>
        <mxCell id="z0q83_2lEymNG6O13yxo-27" value="Number1 &amp;gt; 0" style="rhombus;whiteSpace=wrap;html=1;" vertex="1" parent="1">
          <mxGeometry x="346.25" y="1290" width="117.5" height="110" as="geometry" />
        </mxCell>
        <mxCell id="z0q83_2lEymNG6O13yxo-58" style="edgeStyle=orthogonalEdgeStyle;rounded=0;orthogonalLoop=1;jettySize=auto;html=1;entryX=0.5;entryY=0;entryDx=0;entryDy=0;" edge="1" parent="1" source="z0q83_2lEymNG6O13yxo-29" target="z0q83_2lEymNG6O13yxo-55">
          <mxGeometry relative="1" as="geometry" />
        </mxCell>
        <mxCell id="z0q83_2lEymNG6O13yxo-29" value="The number is Positive" style="shape=parallelogram;perimeter=parallelogramPerimeter;whiteSpace=wrap;html=1;fixedSize=1;" vertex="1" parent="1">
          <mxGeometry x="550" y="1315" width="120" height="60" as="geometry" />
        </mxCell>
        <mxCell id="z0q83_2lEymNG6O13yxo-31" value="True" style="text;html=1;align=center;verticalAlign=middle;whiteSpace=wrap;rounded=0;" vertex="1" parent="1">
          <mxGeometry x="476.25" y="1300" width="70" height="40" as="geometry" />
        </mxCell>
        <mxCell id="z0q83_2lEymNG6O13yxo-32" value="False" style="text;html=1;align=center;verticalAlign=middle;whiteSpace=wrap;rounded=0;" vertex="1" parent="1">
          <mxGeometry x="320" y="1420" width="60" height="30" as="geometry" />
        </mxCell>
        <mxCell id="z0q83_2lEymNG6O13yxo-35" value="Number1 &amp;lt; 0" style="rhombus;whiteSpace=wrap;html=1;" vertex="1" parent="1">
          <mxGeometry x="346.25" y="1460" width="117.5" height="110" as="geometry" />
        </mxCell>
        <mxCell id="z0q83_2lEymNG6O13yxo-36" value="" style="edgeStyle=orthogonalEdgeStyle;rounded=0;orthogonalLoop=1;jettySize=auto;html=1;" edge="1" parent="1" target="z0q83_2lEymNG6O13yxo-37">
          <mxGeometry relative="1" as="geometry">
            <mxPoint x="464" y="1515" as="sourcePoint" />
          </mxGeometry>
        </mxCell>
        <mxCell id="z0q83_2lEymNG6O13yxo-57" style="edgeStyle=orthogonalEdgeStyle;rounded=0;orthogonalLoop=1;jettySize=auto;html=1;entryX=0.5;entryY=0;entryDx=0;entryDy=0;" edge="1" parent="1" source="z0q83_2lEymNG6O13yxo-37" target="z0q83_2lEymNG6O13yxo-55">
          <mxGeometry relative="1" as="geometry">
            <mxPoint x="750" y="1700" as="targetPoint" />
          </mxGeometry>
        </mxCell>
        <mxCell id="z0q83_2lEymNG6O13yxo-37" value="The number is Negative" style="shape=parallelogram;perimeter=parallelogramPerimeter;whiteSpace=wrap;html=1;fixedSize=1;" vertex="1" parent="1">
          <mxGeometry x="550" y="1485" width="120" height="60" as="geometry" />
        </mxCell>
        <mxCell id="z0q83_2lEymNG6O13yxo-38" value="True" style="text;html=1;align=center;verticalAlign=middle;whiteSpace=wrap;rounded=0;" vertex="1" parent="1">
          <mxGeometry x="476.25" y="1470" width="70" height="40" as="geometry" />
        </mxCell>
        <mxCell id="z0q83_2lEymNG6O13yxo-40" value="" style="edgeStyle=orthogonalEdgeStyle;rounded=0;orthogonalLoop=1;jettySize=auto;html=1;" edge="1" parent="1" target="z0q83_2lEymNG6O13yxo-42">
          <mxGeometry relative="1" as="geometry">
            <mxPoint x="405" y="1570" as="sourcePoint" />
          </mxGeometry>
        </mxCell>
        <mxCell id="z0q83_2lEymNG6O13yxo-41" value="False" style="text;html=1;align=center;verticalAlign=middle;whiteSpace=wrap;rounded=0;" vertex="1" parent="1">
          <mxGeometry x="320" y="1590" width="60" height="30" as="geometry" />
        </mxCell>
        <mxCell id="z0q83_2lEymNG6O13yxo-52" style="edgeStyle=orthogonalEdgeStyle;rounded=0;orthogonalLoop=1;jettySize=auto;html=1;" edge="1" parent="1" source="z0q83_2lEymNG6O13yxo-42" target="z0q83_2lEymNG6O13yxo-46">
          <mxGeometry relative="1" as="geometry" />
        </mxCell>
        <mxCell id="z0q83_2lEymNG6O13yxo-42" value="Number1 = 0" style="rhombus;whiteSpace=wrap;html=1;" vertex="1" parent="1">
          <mxGeometry x="346.25" y="1630" width="117.5" height="110" as="geometry" />
        </mxCell>
        <mxCell id="z0q83_2lEymNG6O13yxo-43" value="" style="edgeStyle=orthogonalEdgeStyle;rounded=0;orthogonalLoop=1;jettySize=auto;html=1;" edge="1" parent="1" target="z0q83_2lEymNG6O13yxo-44">
          <mxGeometry relative="1" as="geometry">
            <mxPoint x="464" y="1685" as="sourcePoint" />
          </mxGeometry>
        </mxCell>
        <mxCell id="z0q83_2lEymNG6O13yxo-56" style="edgeStyle=orthogonalEdgeStyle;rounded=0;orthogonalLoop=1;jettySize=auto;html=1;entryX=0.5;entryY=0;entryDx=0;entryDy=0;" edge="1" parent="1" source="z0q83_2lEymNG6O13yxo-44" target="z0q83_2lEymNG6O13yxo-55">
          <mxGeometry relative="1" as="geometry" />
        </mxCell>
        <mxCell id="z0q83_2lEymNG6O13yxo-44" value="The number is&amp;nbsp;&lt;div&gt;Zero&lt;/div&gt;" style="shape=parallelogram;perimeter=parallelogramPerimeter;whiteSpace=wrap;html=1;fixedSize=1;" vertex="1" parent="1">
          <mxGeometry x="550" y="1655" width="120" height="60" as="geometry" />
        </mxCell>
        <mxCell id="z0q83_2lEymNG6O13yxo-45" value="True" style="text;html=1;align=center;verticalAlign=middle;whiteSpace=wrap;rounded=0;" vertex="1" parent="1">
          <mxGeometry x="476.25" y="1640" width="70" height="40" as="geometry" />
        </mxCell>
        <mxCell id="z0q83_2lEymNG6O13yxo-46" value="" style="ellipse;whiteSpace=wrap;html=1;aspect=fixed;" vertex="1" parent="1">
          <mxGeometry x="365" y="1830" width="80" height="80" as="geometry" />
        </mxCell>
        <mxCell id="z0q83_2lEymNG6O13yxo-51" value="False" style="text;html=1;align=center;verticalAlign=middle;whiteSpace=wrap;rounded=0;" vertex="1" parent="1">
          <mxGeometry x="320" y="1770" width="60" height="30" as="geometry" />
        </mxCell>
        <mxCell id="z0q83_2lEymNG6O13yxo-55" value="" style="ellipse;whiteSpace=wrap;html=1;aspect=fixed;" vertex="1" parent="1">
          <mxGeometry x="710" y="1820" width="80" height="80" as="geometry" />
        </mxCell>
        <mxCell id="z0q83_2lEymNG6O13yxo-59" style="edgeStyle=orthogonalEdgeStyle;rounded=0;orthogonalLoop=1;jettySize=auto;html=1;entryX=1;entryY=0.413;entryDx=0;entryDy=0;entryPerimeter=0;" edge="1" parent="1" source="z0q83_2lEymNG6O13yxo-55" target="z0q83_2lEymNG6O13yxo-46">
          <mxGeometry relative="1" as="geometry" />
        </mxCell>
        <mxCell id="z0q83_2lEymNG6O13yxo-60" value="&lt;font style=&quot;font-size: 24px;&quot;&gt;Stop&lt;/font&gt;" style="ellipse;whiteSpace=wrap;html=1;" vertex="1" parent="1">
          <mxGeometry x="343.75" y="1990" width="120" height="80" as="geometry" />
        </mxCell>
        <mxCell id="z0q83_2lEymNG6O13yxo-61" style="edgeStyle=orthogonalEdgeStyle;rounded=0;orthogonalLoop=1;jettySize=auto;html=1;entryX=0.444;entryY=0.05;entryDx=0;entryDy=0;entryPerimeter=0;" edge="1" parent="1" source="z0q83_2lEymNG6O13yxo-46" target="z0q83_2lEymNG6O13yxo-60">
          <mxGeometry relative="1" as="geometry" />
        </mxCell>
        <mxCell id="z0q83_2lEymNG6O13yxo-62" value="" style="endArrow=none;dashed=1;html=1;dashPattern=1 3;strokeWidth=2;rounded=0;" edge="1" parent="1">
          <mxGeometry width="50" height="50" relative="1" as="geometry">
            <mxPoint x="9" y="2120" as="sourcePoint" />
            <mxPoint x="841" y="2120" as="targetPoint" />
          </mxGeometry>
        </mxCell>
        <mxCell id="z0q83_2lEymNG6O13yxo-63" value="&lt;font style=&quot;font-size: 24px;&quot;&gt;Find the Largest of Three Numbers&lt;/font&gt;" style="text;html=1;align=center;verticalAlign=middle;whiteSpace=wrap;rounded=0;" vertex="1" parent="1">
          <mxGeometry x="280" y="2160" width="290" height="60" as="geometry" />
        </mxCell>
        <mxCell id="z0q83_2lEymNG6O13yxo-64" style="edgeStyle=orthogonalEdgeStyle;rounded=0;orthogonalLoop=1;jettySize=auto;html=1;entryX=0.5;entryY=0;entryDx=0;entryDy=0;" edge="1" parent="1" source="z0q83_2lEymNG6O13yxo-65" target="z0q83_2lEymNG6O13yxo-66">
          <mxGeometry relative="1" as="geometry" />
        </mxCell>
        <mxCell id="z0q83_2lEymNG6O13yxo-65" value="&lt;font style=&quot;font-size: 18px;&quot;&gt;Start&lt;/font&gt;" style="ellipse;whiteSpace=wrap;html=1;" vertex="1" parent="1">
          <mxGeometry x="282.5" y="2250" width="140" height="70" as="geometry" />
        </mxCell>
        <mxCell id="z0q83_2lEymNG6O13yxo-69" style="edgeStyle=orthogonalEdgeStyle;rounded=0;orthogonalLoop=1;jettySize=auto;html=1;" edge="1" parent="1" source="z0q83_2lEymNG6O13yxo-66" target="z0q83_2lEymNG6O13yxo-67">
          <mxGeometry relative="1" as="geometry" />
        </mxCell>
        <mxCell id="z0q83_2lEymNG6O13yxo-66" value="&lt;font style=&quot;font-size: 14px;&quot;&gt;Number 1&lt;/font&gt;" style="shape=parallelogram;perimeter=parallelogramPerimeter;whiteSpace=wrap;html=1;fixedSize=1;" vertex="1" parent="1">
          <mxGeometry x="292.5" y="2380" width="120" height="60" as="geometry" />
        </mxCell>
        <mxCell id="z0q83_2lEymNG6O13yxo-70" style="edgeStyle=orthogonalEdgeStyle;rounded=0;orthogonalLoop=1;jettySize=auto;html=1;entryX=0.5;entryY=0;entryDx=0;entryDy=0;" edge="1" parent="1" source="z0q83_2lEymNG6O13yxo-67" target="z0q83_2lEymNG6O13yxo-68">
          <mxGeometry relative="1" as="geometry" />
        </mxCell>
        <mxCell id="z0q83_2lEymNG6O13yxo-67" value="&lt;font style=&quot;font-size: 14px;&quot;&gt;Number 2&lt;/font&gt;&lt;div&gt;&lt;font style=&quot;font-size: 14px;&quot;&gt;&lt;br&gt;&lt;/font&gt;&lt;/div&gt;" style="shape=parallelogram;perimeter=parallelogramPerimeter;whiteSpace=wrap;html=1;fixedSize=1;" vertex="1" parent="1">
          <mxGeometry x="292.5" y="2510" width="120" height="60" as="geometry" />
        </mxCell>
        <mxCell id="z0q83_2lEymNG6O13yxo-75" style="edgeStyle=orthogonalEdgeStyle;rounded=0;orthogonalLoop=1;jettySize=auto;html=1;entryX=0.5;entryY=0;entryDx=0;entryDy=0;" edge="1" parent="1" source="z0q83_2lEymNG6O13yxo-68" target="z0q83_2lEymNG6O13yxo-71">
          <mxGeometry relative="1" as="geometry" />
        </mxCell>
        <mxCell id="z0q83_2lEymNG6O13yxo-68" value="&lt;font style=&quot;font-size: 14px;&quot;&gt;Number 3&lt;/font&gt;" style="shape=parallelogram;perimeter=parallelogramPerimeter;whiteSpace=wrap;html=1;fixedSize=1;" vertex="1" parent="1">
          <mxGeometry x="292.5" y="2630" width="120" height="60" as="geometry" />
        </mxCell>
        <mxCell id="z0q83_2lEymNG6O13yxo-78" style="edgeStyle=orthogonalEdgeStyle;rounded=0;orthogonalLoop=1;jettySize=auto;html=1;entryX=0;entryY=0.5;entryDx=0;entryDy=0;" edge="1" parent="1" source="z0q83_2lEymNG6O13yxo-71" target="z0q83_2lEymNG6O13yxo-73">
          <mxGeometry relative="1" as="geometry" />
        </mxCell>
        <mxCell id="z0q83_2lEymNG6O13yxo-81" style="edgeStyle=orthogonalEdgeStyle;rounded=0;orthogonalLoop=1;jettySize=auto;html=1;entryX=0.5;entryY=0;entryDx=0;entryDy=0;" edge="1" parent="1" source="z0q83_2lEymNG6O13yxo-71" target="z0q83_2lEymNG6O13yxo-80">
          <mxGeometry relative="1" as="geometry" />
        </mxCell>
        <mxCell id="z0q83_2lEymNG6O13yxo-71" value="&lt;div&gt;&lt;br&gt;&lt;/div&gt;Number1 &amp;gt;&amp;nbsp;&lt;div&gt;Number 2&lt;div&gt;&lt;br&gt;&lt;/div&gt;&lt;/div&gt;" style="rhombus;whiteSpace=wrap;html=1;" vertex="1" parent="1">
          <mxGeometry x="286.25" y="2750" width="117.5" height="110" as="geometry" />
        </mxCell>
        <mxCell id="z0q83_2lEymNG6O13yxo-72" value="True" style="text;html=1;align=center;verticalAlign=middle;whiteSpace=wrap;rounded=0;" vertex="1" parent="1">
          <mxGeometry x="422.5" y="2750" width="70" height="40" as="geometry" />
        </mxCell>
        <mxCell id="z0q83_2lEymNG6O13yxo-96" style="edgeStyle=orthogonalEdgeStyle;rounded=0;orthogonalLoop=1;jettySize=auto;html=1;entryX=1;entryY=0;entryDx=0;entryDy=0;" edge="1" parent="1" source="z0q83_2lEymNG6O13yxo-73" target="z0q83_2lEymNG6O13yxo-88">
          <mxGeometry relative="1" as="geometry" />
        </mxCell>
        <mxCell id="z0q83_2lEymNG6O13yxo-73" value="&lt;div&gt;&lt;br&gt;&lt;/div&gt;Number1 &amp;gt;&amp;nbsp;&lt;div&gt;Number 3&lt;/div&gt;" style="rhombus;whiteSpace=wrap;html=1;" vertex="1" parent="1">
          <mxGeometry x="516.25" y="2750" width="117.5" height="110" as="geometry" />
        </mxCell>
        <mxCell id="z0q83_2lEymNG6O13yxo-74" value="False" style="text;html=1;align=center;verticalAlign=middle;whiteSpace=wrap;rounded=0;" vertex="1" parent="1">
          <mxGeometry x="266.25" y="2890" width="60" height="30" as="geometry" />
        </mxCell>
        <mxCell id="z0q83_2lEymNG6O13yxo-76" value="True" style="text;html=1;align=center;verticalAlign=middle;whiteSpace=wrap;rounded=0;" vertex="1" parent="1">
          <mxGeometry x="676.25" y="2750" width="70" height="40" as="geometry" />
        </mxCell>
        <mxCell id="z0q83_2lEymNG6O13yxo-100" style="edgeStyle=orthogonalEdgeStyle;rounded=0;orthogonalLoop=1;jettySize=auto;html=1;entryX=1;entryY=0.5;entryDx=0;entryDy=0;" edge="1" parent="1" source="z0q83_2lEymNG6O13yxo-77" target="z0q83_2lEymNG6O13yxo-97">
          <mxGeometry relative="1" as="geometry" />
        </mxCell>
        <mxCell id="z0q83_2lEymNG6O13yxo-77" value="The Number 1 is&amp;nbsp;&lt;div&gt;Largest&lt;/div&gt;" style="shape=parallelogram;perimeter=parallelogramPerimeter;whiteSpace=wrap;html=1;fixedSize=1;" vertex="1" parent="1">
          <mxGeometry x="636.25" y="2930" width="120" height="60" as="geometry" />
        </mxCell>
        <mxCell id="z0q83_2lEymNG6O13yxo-79" style="edgeStyle=orthogonalEdgeStyle;rounded=0;orthogonalLoop=1;jettySize=auto;html=1;entryX=0.6;entryY=-0.033;entryDx=0;entryDy=0;entryPerimeter=0;" edge="1" parent="1" source="z0q83_2lEymNG6O13yxo-73" target="z0q83_2lEymNG6O13yxo-77">
          <mxGeometry relative="1" as="geometry" />
        </mxCell>
        <mxCell id="z0q83_2lEymNG6O13yxo-84" style="edgeStyle=orthogonalEdgeStyle;rounded=0;orthogonalLoop=1;jettySize=auto;html=1;entryX=0;entryY=0.5;entryDx=0;entryDy=0;" edge="1" parent="1" source="z0q83_2lEymNG6O13yxo-80" target="z0q83_2lEymNG6O13yxo-83">
          <mxGeometry relative="1" as="geometry" />
        </mxCell>
        <mxCell id="z0q83_2lEymNG6O13yxo-95" style="edgeStyle=orthogonalEdgeStyle;rounded=0;orthogonalLoop=1;jettySize=auto;html=1;entryX=0;entryY=0.25;entryDx=0;entryDy=0;" edge="1" parent="1" source="z0q83_2lEymNG6O13yxo-80" target="z0q83_2lEymNG6O13yxo-88">
          <mxGeometry relative="1" as="geometry" />
        </mxCell>
        <mxCell id="z0q83_2lEymNG6O13yxo-80" value="&lt;div&gt;&lt;br&gt;&lt;/div&gt;Number2 &amp;gt;&amp;nbsp;&lt;div&gt;Number 3&lt;div&gt;&lt;br&gt;&lt;/div&gt;&lt;/div&gt;" style="rhombus;whiteSpace=wrap;html=1;" vertex="1" parent="1">
          <mxGeometry x="286.25" y="2920" width="117.5" height="110" as="geometry" />
        </mxCell>
        <mxCell id="z0q83_2lEymNG6O13yxo-83" value="The Number 2 is&amp;nbsp;&lt;div&gt;Largest&lt;/div&gt;" style="shape=parallelogram;perimeter=parallelogramPerimeter;whiteSpace=wrap;html=1;fixedSize=1;" vertex="1" parent="1">
          <mxGeometry x="445" y="2960" width="120" height="60" as="geometry" />
        </mxCell>
        <mxCell id="z0q83_2lEymNG6O13yxo-85" value="False" style="text;html=1;align=center;verticalAlign=middle;whiteSpace=wrap;rounded=0;" vertex="1" parent="1">
          <mxGeometry x="505" y="2880" width="60" height="30" as="geometry" />
        </mxCell>
        <mxCell id="z0q83_2lEymNG6O13yxo-86" value="True" style="text;html=1;align=center;verticalAlign=middle;whiteSpace=wrap;rounded=0;" vertex="1" parent="1">
          <mxGeometry x="396.25" y="2940" width="70" height="40" as="geometry" />
        </mxCell>
        <mxCell id="z0q83_2lEymNG6O13yxo-87" value="False" style="text;html=1;align=center;verticalAlign=middle;whiteSpace=wrap;rounded=0;" vertex="1" parent="1">
          <mxGeometry x="276.25" y="3080" width="60" height="30" as="geometry" />
        </mxCell>
        <mxCell id="z0q83_2lEymNG6O13yxo-98" style="edgeStyle=orthogonalEdgeStyle;rounded=0;orthogonalLoop=1;jettySize=auto;html=1;entryX=0;entryY=0.5;entryDx=0;entryDy=0;" edge="1" parent="1" source="z0q83_2lEymNG6O13yxo-88" target="z0q83_2lEymNG6O13yxo-97">
          <mxGeometry relative="1" as="geometry" />
        </mxCell>
        <mxCell id="z0q83_2lEymNG6O13yxo-88" value="The Number 3 is&amp;nbsp;&lt;div&gt;Largest&lt;/div&gt;" style="shape=parallelogram;perimeter=parallelogramPerimeter;whiteSpace=wrap;html=1;fixedSize=1;" vertex="1" parent="1">
          <mxGeometry x="400" y="3110" width="165" height="80" as="geometry" />
        </mxCell>
        <mxCell id="z0q83_2lEymNG6O13yxo-104" style="edgeStyle=orthogonalEdgeStyle;rounded=0;orthogonalLoop=1;jettySize=auto;html=1;entryX=0.5;entryY=0;entryDx=0;entryDy=0;" edge="1" parent="1" source="z0q83_2lEymNG6O13yxo-97" target="z0q83_2lEymNG6O13yxo-101">
          <mxGeometry relative="1" as="geometry" />
        </mxCell>
        <mxCell id="z0q83_2lEymNG6O13yxo-97" value="" style="ellipse;whiteSpace=wrap;html=1;aspect=fixed;" vertex="1" parent="1">
          <mxGeometry x="590" y="3240" width="80" height="80" as="geometry" />
        </mxCell>
        <mxCell id="z0q83_2lEymNG6O13yxo-99" style="edgeStyle=orthogonalEdgeStyle;rounded=0;orthogonalLoop=1;jettySize=auto;html=1;entryX=0.4;entryY=0.025;entryDx=0;entryDy=0;entryPerimeter=0;" edge="1" parent="1" source="z0q83_2lEymNG6O13yxo-83" target="z0q83_2lEymNG6O13yxo-97">
          <mxGeometry relative="1" as="geometry" />
        </mxCell>
        <mxCell id="z0q83_2lEymNG6O13yxo-101" value="&lt;font style=&quot;font-size: 24px;&quot;&gt;Stop&lt;/font&gt;" style="ellipse;whiteSpace=wrap;html=1;" vertex="1" parent="1">
          <mxGeometry x="565" y="3410" width="120" height="80" as="geometry" />
        </mxCell>
        <mxCell id="z0q83_2lEymNG6O13yxo-105" value="" style="endArrow=none;dashed=1;html=1;dashPattern=1 3;strokeWidth=2;rounded=0;" edge="1" parent="1">
          <mxGeometry width="50" height="50" relative="1" as="geometry">
            <mxPoint x="9" y="3530" as="sourcePoint" />
            <mxPoint x="841" y="3530" as="targetPoint" />
          </mxGeometry>
        </mxCell>
      </root>
    </mxGraphModel>
  </diagram>
</mxfile>
